<svg width="17" height="17" viewBox="0 0 17 17" fill="none" xmlns="http://www.w3.org/2000/svg">
<path d="M4.32499 9.50078L9.22499 14.4008C9.42499 14.6008 9.52082 14.8341 9.51249 15.1008C9.50415 15.3674 9.39999 15.6008 9.19999 15.8008C8.99999 15.9841 8.76665 16.0799 8.49999 16.0883C8.23332 16.0966 7.99999 16.0008 7.79999 15.8008L1.19999 9.20078C1.09999 9.10078 1.02915 8.99245 0.987488 8.87578C0.945821 8.75911 0.924988 8.63411 0.924988 8.50078C0.924988 8.36745 0.945821 8.24245 0.987488 8.12578C1.02915 8.00911 1.09999 7.90078 1.19999 7.80078L7.79999 1.20078C7.98332 1.01745 8.21249 0.925781 8.48749 0.925781C8.76249 0.925781 8.99999 1.01745 9.19999 1.20078C9.39999 1.40078 9.49999 1.63828 9.49999 1.91328C9.49999 2.18828 9.39999 2.42578 9.19999 2.62578L4.32499 7.50078H15.5C15.7833 7.50078 16.0208 7.59661 16.2125 7.78828C16.4042 7.97995 16.5 8.21745 16.5 8.50078C16.5 8.78411 16.4042 9.02161 16.2125 9.21328C16.0208 9.40495 15.7833 9.50078 15.5 9.50078H4.32499Z" fill="#6A6A6A"/>
</svg>
