<svg width="20" height="21" viewBox="0 0 20 21" fill="none" xmlns="http://www.w3.org/2000/svg">
<path d="M10 15.543C11.3833 15.543 12.5625 15.0555 13.5375 14.0805C14.5125 13.1055 15 11.9263 15 10.543C15 9.15964 14.5125 7.98047 13.5375 7.00547C12.5625 6.03047 11.3833 5.54297 10 5.54297C8.61667 5.54297 7.4375 6.03047 6.4625 7.00547C5.4875 7.98047 5 9.15964 5 10.543C5 11.9263 5.4875 13.1055 6.4625 14.0805C7.4375 15.0555 8.61667 15.543 10 15.543ZM10 20.543C8.61667 20.543 7.31667 20.2805 6.1 19.7555C4.88333 19.2305 3.825 18.518 2.925 17.618C2.025 16.718 1.3125 15.6596 0.7875 14.443C0.2625 13.2263 0 11.9263 0 10.543C0 9.15964 0.2625 7.85964 0.7875 6.64297C1.3125 5.4263 2.025 4.36797 2.925 3.46797C3.825 2.56797 4.88333 1.85547 6.1 1.33047C7.31667 0.805469 8.61667 0.542969 10 0.542969C11.3833 0.542969 12.6833 0.805469 13.9 1.33047C15.1167 1.85547 16.175 2.56797 17.075 3.46797C17.975 4.36797 18.6875 5.4263 19.2125 6.64297C19.7375 7.85964 20 9.15964 20 10.543C20 11.9263 19.7375 13.2263 19.2125 14.443C18.6875 15.6596 17.975 16.718 17.075 17.618C16.175 18.518 15.1167 19.2305 13.9 19.7555C12.6833 20.2805 11.3833 20.543 10 20.543ZM10 18.543C12.2333 18.543 14.125 17.768 15.675 16.218C17.225 14.668 18 12.7763 18 10.543C18 8.30964 17.225 6.41797 15.675 4.86797C14.125 3.31797 12.2333 2.54297 10 2.54297C7.76667 2.54297 5.875 3.31797 4.325 4.86797C2.775 6.41797 2 8.30964 2 10.543C2 12.7763 2.775 14.668 4.325 16.218C5.875 17.768 7.76667 18.543 10 18.543Z" fill="#5F6368"/>
</svg>
