<svg width="54" height="47" viewBox="0 0 54 47" fill="none" xmlns="http://www.w3.org/2000/svg">
<path opacity="0.4" d="M50.92 16.6641H43.08C39.6934 16.6641 37.6667 14.6057 37.6667 11.1661V3.20365C37.6667 2.12031 37.88 1.19948 38.2534 0.414062C38.2267 0.414062 38.2 0.414062 38.1734 0.414062H15.8267C6.12004 0.414063 0.333374 6.29115 0.333374 16.1495V38.8453C0.333374 41.7974 0.84004 44.3703 1.82671 46.537L2.12004 46.3203L15.24 37.3828C17.3734 35.9203 20.3867 36.0828 22.28 37.762L23.1867 38.5203C25.2667 40.3349 28.6267 40.3349 30.7067 38.5203L41.8 28.8516C43.88 27.037 47.24 27.037 49.32 28.8516L53.6667 32.6432V16.1495C53.6667 16.1224 53.6667 16.0953 53.6667 16.0682C52.8934 16.4474 51.9867 16.6641 50.92 16.6641Z" fill="#007C85"/>
</svg>
