<svg width="51" height="46" viewBox="0 0 51 46" fill="none" xmlns="http://www.w3.org/2000/svg">
<path d="M41.0257 27.8308L38.939 24.7024C38.5007 24.0051 38.1043 22.6858 38.1043 21.9131V17.1451C38.1043 12.7162 35.2246 8.89045 31.072 7.10007C29.9869 5.36622 27.9837 4.29199 25.6883 4.29199C23.4138 4.29199 21.3688 5.40392 20.2837 7.15661C16.2146 8.98468 13.3975 12.7728 13.3975 17.1451V21.9131C13.3975 22.6858 13.0011 24.0051 12.5629 24.6835L10.4553 27.8308C9.62058 29.0935 9.43277 30.4881 9.95445 31.7697C10.4553 33.0324 11.6447 34.0124 13.1889 34.4835C17.2371 35.7274 21.494 36.3305 25.7509 36.3305C30.0078 36.3305 34.2647 35.7274 38.3129 34.5024C39.7736 34.0689 40.9005 33.0701 41.443 31.7697C41.9856 30.4693 41.8395 29.037 41.0257 27.8308Z" fill="white"/>
<path d="M31.6142 38.2337C30.7378 40.4198 28.4215 41.9841 25.7088 41.9841C24.0603 41.9841 22.4326 41.381 21.2849 40.3068C20.6172 39.7414 20.1164 38.9875 19.8242 38.2148C20.0955 38.2525 20.3668 38.2714 20.6589 38.3091C21.1389 38.3656 21.6397 38.4222 22.1405 38.4598C23.3299 38.5541 24.5402 38.6106 25.7505 38.6106C26.9399 38.6106 28.1294 38.5541 29.2979 38.4598C29.7361 38.4222 30.1743 38.4033 30.5917 38.3468C30.9256 38.3091 31.2594 38.2714 31.6142 38.2337Z" fill="white"/>
</svg>
