<svg width="23" height="22" viewBox="0 0 23 22" fill="none" xmlns="http://www.w3.org/2000/svg">
<path d="M17.6865 7.417C19.1859 7.417 20.4014 6.20152 20.4014 4.70215C20.4014 3.20278 19.1859 1.9873 17.6865 1.9873C16.1872 1.9873 14.9717 3.20278 14.9717 4.70215C14.9717 6.20152 16.1872 7.417 17.6865 7.417Z" fill="#191D23"/>
<path opacity="0.4" d="M17.6859 8.77475C15.4416 8.77475 13.6136 6.94675 13.6136 4.70248C13.6136 4.05091 13.7856 3.4446 14.0571 2.89258H7.29708C4.175 2.89258 2.30176 4.75677 2.30176 7.8879V15.0822C2.30176 18.2224 4.175 20.0866 7.29708 20.0866H14.4914C17.6226 20.0866 19.4867 18.2224 19.4867 15.0913V8.33132C18.9438 8.60281 18.3375 8.77475 17.6859 8.77475Z" fill="#191D23"/>
<path d="M11.1244 12.8477H6.59961C6.22858 12.8477 5.9209 12.54 5.9209 12.1689C5.9209 11.7979 6.22858 11.4902 6.59961 11.4902H11.1244C11.4954 11.4902 11.8031 11.7979 11.8031 12.1689C11.8031 12.54 11.4954 12.8477 11.1244 12.8477Z" fill="#191D23"/>
<path d="M14.7442 16.4668H6.59961C6.22858 16.4668 5.9209 16.1591 5.9209 15.7881C5.9209 15.4171 6.22858 15.1094 6.59961 15.1094H14.7442C15.1152 15.1094 15.4229 15.4171 15.4229 15.7881C15.4229 16.1591 15.1152 16.4668 14.7442 16.4668Z" fill="#191D23"/>
</svg>
